<?xml version="1.0" standalone="no"?><svg xmlns="http://www.w3.org/2000/svg" viewBox="0 0 1440 320"><path fill="#a0b5c7" fill-opacity="1" d="M0,320L30,272C60,224,120,128,180,96C240,64,300,96,360,117.3C420,139,480,149,540,144C600,139,660,117,720,133.3C780,149,840,203,900,202.7C960,203,1020,149,1080,128C1140,107,1200,117,1260,101.3C1320,85,1380,43,1410,21.3L1440,0L1440,320L1410,320C1380,320,1320,320,1260,320C1200,320,1140,320,1080,320C1020,320,960,320,900,320C840,320,780,320,720,320C660,320,600,320,540,320C480,320,420,320,360,320C300,320,240,320,180,320C120,320,60,320,30,320L0,320Z"></path></svg>